PathFileType	4	(X/Y/Z)	C:\Users\WrightLab\Desktop\Jo\P1.2Trial5.trc
DataRate	CameraRate	NumFrames	NumMarkers	Units	OrigDataRate	OrigDataStartFrame	OrigNumFrames
100.00	100.00	       19	19	mm	100.00	655	       872
Frame#	Time	Headset_Front			Headset_Back			Headset_Left			Headset_Right			Left_Shoulder			Right_Shoulder			Sternum			C7			Left Elbow			Right Elbow			Left Wrist			Right Wrist			Left ASIS			Right ASIS			S2			Left Knee			Right Knee			Left Ankle			Right Ankle			
		X1	Y1	Z1	X2	Y2	Z2	X3	Y3	Z3	X4	Y4	Z4	X5	Y5	Z5	X6	Y6	Z6	X7	Y7	Z7	X8	Y8	Z8	X9	Y9	Z9	X10	Y10	Z10	X11	Y11	Z11	X12	Y12	Z12	X13	Y13	Z13	X14	Y14	Z14	X15	Y15	Z15	X16	Y16	Z16	X17	Y17	Z17	X18	Y18	Z18	X19	Y19	Z19	

655	6.540	-525.57263	1293.03210	-282.17819	-546.00677	1495.43201	-51.17529	-649.33844	1412.75330	-160.75061	-429.51797	1348.83240	-180.79001	-777.19867	1229.52307	-63.44849	-367.49261	1208.50195	-57.64303	-586.24658	1128.08691	-146.83304	-567.24017	1299.51721	58.37904	-837.41382	957.13232	-126.46652	-280.68802	970.81921	14.59984	-770.60980	834.92761	-327.09134	-205.95370	721.28394	-58.29900	-581.74994	922.70880	189.62296	-448.30270	806.87549	-106.78705	-756.57153	828.18591	-83.47502	-797.95996	432.96136	-66.62299	-372.69159	401.17258	-30.57291	-857.84003	92.79091	-9.28743	-237.61961	129.75639	138.05791	
656	6.550	-532.56995	1296.12134	-284.06512	-554.39526	1496.53735	-51.26855	-657.63489	1415.27136	-163.13388	-436.88647	1350.63757	-180.80403	-785.39343	1229.92163	-66.04451	-374.97043	1210.20593	-58.26845	-595.78259	1129.55200	-150.11359	-575.72955	1300.21362	55.99404	-846.84680	956.50378	-126.06485	-291.57510	971.31982	13.47636	-781.07916	830.50183	-323.69275	-217.05251	721.50897	-60.43106	-589.41498	923.09326	186.38461	-458.25568	807.90424	-109.35757				-803.82550	434.16187	-68.95937	-381.54239	402.41599	-32.17841	-859.14392	92.33974	-11.27524	-241.08253	132.88197	134.33859	
657	6.560	-539.47943	1299.30835	-286.40442	-562.30328	1498.39294	-52.35247	-664.84564	1417.45801	-164.41301	-444.39081	1352.87842	-182.31123	-793.65955	1230.50610	-67.60478	-383.50394	1211.72852	-63.17126	-604.62103	1131.11731	-152.85834	-583.95148	1301.36340	53.61251	-856.29962	956.19513	-124.41477	-303.17017	970.89343	10.40807	-791.80737	826.96704	-321.03220	-227.85182	721.37634	-62.04894	-597.73871	924.05676	183.67264	-467.97543	809.79193	-112.83470				-809.13379	434.63229	-70.93764	-389.94540	403.78561	-33.64873	-860.16962	91.51282	-12.18810	-243.73724	135.94353	129.79063	
658	6.570	-546.03296	1302.15820	-288.23111	-570.65692	1499.26563	-52.82288	-672.69531	1419.18994	-166.38605	-451.82648	1355.17493	-183.16605	-801.98773	1231.18652	-69.08398	-390.90015	1212.30103	-66.02452	-612.88281	1132.63037	-155.86522	-591.43469	1302.39038	51.12231	-865.38013	956.08411	-123.54593	-313.41464	971.68573	8.55635	-802.81757	822.81671	-316.01828	-239.75256	721.37897	-63.65136	-605.16803	924.60388	180.52165	-476.83945	811.50220	-116.03303				-814.62585	434.69907	-72.18262	-399.09167	404.93692	-35.88660	-861.22998	90.63895	-12.60643	-247.69215	138.63545	126.13424	
659	6.580	-553.02051	1305.17639	-290.42184	-578.16394	1500.48743	-53.40863	-680.13300	1421.75037	-168.56978	-459.37943	1358.09692	-185.05222	-810.10693	1231.89429	-69.93211	-398.94070	1213.64148	-69.24371	-621.04102	1134.55957	-158.66873	-599.43927	1303.22058	48.41279	-874.34613	955.83466	-120.72376	-322.73138	973.21130	6.23306	-814.40607	819.26532	-312.21225	-251.48302	721.73480	-64.57046	-613.04932	925.79791	177.88893	-486.03064	813.98969	-119.63494				-819.72754	434.66135	-73.75092	-407.98456	406.14877	-38.04416	-861.72614	89.08682	-12.24506	-253.56343	142.06367	122.34887	
660	6.590	-559.58075	1307.82568	-291.84915	-586.97534	1500.23767	-54.60691	-687.28198	1423.36536	-170.48242	-466.37430	1360.16357	-186.14998	-818.30054	1232.92102	-70.75982	-406.44839	1215.25525	-69.09060	-628.73260	1136.55017	-161.77153	-605.97772	1303.87280	46.62897	-883.33795	956.10229	-117.89123	-332.31543	973.85431	4.10792	-826.11053	816.18988	-306.87155	-263.35428	721.79492	-66.52139	-620.13660	925.78760	174.64488	-494.11896	815.60083	-121.91434	-803.17456	834.62769	-99.21188	-824.66528	434.48315	-74.64980	-415.94516	407.84875	-40.82050	-862.11194	86.57108	-9.98367	-258.32101	143.41106	117.22907	
661	6.600	-566.09351	1311.18640	-294.22473	-594.22064	1501.76965	-55.64758	-694.95142	1425.40991	-171.55493	-473.66995	1362.27893	-186.26418	-825.77618	1233.58716	-71.43042	-413.57111	1216.48975	-74.30852	-636.27881	1139.22766	-164.84639	-612.94366	1304.97144	44.53830	-892.63666	956.36877	-115.49917	-341.27856	974.85016	1.97653	-838.13947	813.89435	-302.54684	-275.84842	721.95770	-67.46617	-627.10211	926.14215	171.37437	-502.02530	817.54462	-124.13466	-810.01074	835.91992	-103.28011	-829.35162	433.76337	-75.32471	-422.97552	408.00247	-43.96412	-862.18134	85.62154	-10.42179	-265.56720	147.32967	114.46387	
662	6.610	-572.70599	1313.80579	-295.81232	-602.22339	1503.71582	-56.77048	-702.03223	1426.82336	-173.92310	-480.94858	1365.17773	-188.01915	-833.53430	1234.55603	-71.74094	-420.25034	1217.34705	-77.61574	-643.22827	1140.91016	-167.82002	-619.74756	1306.32568	42.13214	-901.74170	956.69775	-112.01774	-350.53113	975.89453	-0.95174	-850.75665	811.15112	-296.90750	-288.26761	720.95758	-69.01750	-633.78375	926.52063	168.02014	-510.14401	819.86810	-126.99559	-819.24542	835.98370	-103.45284	-833.29834	433.63358	-76.25504	-427.61481	410.17474	-48.80104	-862.06293	84.10471	-9.71310	-271.77469	148.88928	111.14708	
663	6.620	-579.06946	1316.60132	-298.10263	-610.30988	1504.87476	-58.03418	-709.14178	1428.88794	-175.45383	-487.71701	1367.96619	-189.27859	-840.93390	1235.71094	-72.13119	-427.52505	1219.81775	-81.06760	-650.04828	1143.42590	-170.37126	-626.44922	1307.42578	40.58188	-910.97778	957.07623	-108.55219	-357.99762	977.42755	-4.72360	-863.72504	809.23956	-292.44727	-300.57910	721.70227	-71.21383	-640.22797	927.02948	164.04312	-516.82025	821.51563	-128.75676	-826.90338	838.17908	-107.65048	-836.91925	433.28311	-77.12675	-432.66098	412.01718	-56.46212	-861.26276	82.15364	-9.09342	-280.45474	152.35837	108.93996	
664	6.630	-585.18347	1319.08862	-299.73743	-618.57727	1506.94775	-59.51593	-716.49347	1430.57227	-177.76497	-494.35208	1370.13342	-190.23936	-848.15576	1236.74268	-72.24039	-434.04620	1221.62952	-83.55630	-656.47498	1144.68530	-172.26204	-633.16736	1308.85938	37.76017	-920.10016	957.97290	-105.28331	-365.52899	978.66974	-8.09166	-876.98169	807.75421	-287.94110	-312.54642	721.91248	-73.69023	-647.01001	927.83344	160.99579	-523.09290	824.59436	-131.88722	-830.57574	839.30762	-113.00105	-840.40253	432.84262	-78.04636	-438.45676	413.83252	-63.77818	-861.11267	81.09533	-8.92964	-287.54776	155.79567	107.86648	
665	6.640	-591.36908	1322.06116	-302.12738	-625.65173	1508.70386	-60.92049	-723.54315	1432.00293	-179.43062	-501.09058	1373.82910	-193.41039	-855.10870	1237.63745	-72.54682	-439.82489	1222.35217	-84.87572	-662.88593	1146.96301	-174.44586	-639.19537	1309.59180	35.90327	-928.67664	958.91296	-101.46563	-372.28488	979.93384	-11.17126	-890.65668	806.69080	-283.77649	-323.57690	723.51233	-75.61945	-653.79492	928.44427	156.86844	-528.99304	825.99646	-133.57996	-840.20728	840.00873	-113.15716	-843.62512	432.21265	-79.19769	-445.06186	415.00668	-71.91637	-860.92114	80.28223	-9.20972	-296.42148	157.75160	107.07801	
666	6.650	-597.78735	1324.83594	-304.38339	-633.09125	1509.99341	-62.23949	-730.24646	1433.30884	-180.89265	-507.79227	1375.50061	-195.06877	-861.68311	1238.59180	-72.62314	-445.80499	1225.05420	-88.61560	-669.16931	1148.76331	-177.19446	-644.65771	1310.54041	33.55917	-938.13452	959.16052	-97.62605	-378.85776	980.48547	-14.68757				-333.89279	725.46771	-78.79343	-659.82611	929.34149	153.74652	-534.01636	828.41516	-135.77692	-846.27893	842.04333	-119.91518	-846.44171	431.95447	-80.37637	-451.30869	415.54041	-79.06364	-860.93842	79.96663	-9.52260	-305.69501	161.13217	105.06084	
667	6.660	-603.54614	1327.01270	-306.42615	-640.69733	1511.65601	-63.93011	-736.88525	1434.66565	-183.16655	-513.85571	1378.38708	-196.81424	-868.19318	1239.74536	-73.59158	-451.82001	1227.04419	-91.36050	-675.07501	1150.59277	-179.15990	-650.76184	1311.98926	31.65920	-946.84973	960.79974	-95.14947	-385.32718	982.29547	-18.17137	-919.53308	804.69678	-276.06107	-344.33392	725.74408	-82.74815	-665.64154	929.37622	148.13440	-539.66290	830.29761	-138.64268	-851.52692	841.75909	-121.97168	-848.99011	431.95807	-81.87856	-456.71640	416.38586	-88.16219	-861.33887	79.77650	-9.37848	-314.67953	163.59393	104.13708	
668	6.670	-609.49573	1329.38306	-308.24545	-647.83850	1512.93958	-65.88834	-743.70917	1436.04565	-185.24005	-520.28564	1381.44556	-198.52850	-874.64447	1240.58130	-74.00591	-457.69553	1228.75244	-93.66019	-680.95618	1152.65027	-181.98550	-656.79059	1312.80396	29.53540	-954.16510	961.50903	-91.55058	-391.13943	983.85498	-21.41772	-934.48322	804.28510	-272.35544	-351.09866	727.51776	-88.44510	-670.84595	930.07855	145.61067	-543.69366	831.93842	-141.28870	-856.62561	843.60651	-126.35712	-851.58722	431.18347	-82.56375	-462.74130	416.42459	-95.19415	-861.72290	79.41000	-8.81874	-322.91003	167.60709	102.52804	
669	6.680	-615.70074	1331.69861	-311.00586	-655.08899	1513.36682	-66.73345	-750.40601	1436.94995	-186.83279	-526.69098	1383.20959	-200.00566	-881.03870	1241.34583	-74.03536	-462.86929	1230.19214	-90.52110	-686.21960	1153.48584	-183.45724	-663.02808	1314.16443	26.96664	-961.10529	961.90314	-87.81590	-396.78043	985.25525	-24.34514	-950.73401	804.33997	-269.30402	-358.90103	729.40552	-93.99075	-675.44110	930.79700	140.68814	-548.34821	833.97205	-143.97275	-861.71600	843.97699	-131.40775	-853.71503	430.94070	-83.60960	-469.30096	418.27997	-103.77478	-861.95453	79.31870	-8.93830	-333.17117	169.55344	100.63837	
670	6.690	-621.35278	1333.96448	-313.39377	-662.07318	1515.16113	-68.67136	-756.88086	1437.99451	-188.71719	-532.99091	1386.45361	-202.69473	-887.07758	1241.75903	-75.15934	-468.79044	1232.71191	-94.85594	-691.65039	1155.77673	-186.58673	-668.56073	1314.84851	25.00416	-968.60992	963.37445	-85.94963	-402.09674	987.27441	-27.17593	-966.30927	804.66345	-266.08466	-365.76315	731.35150	-100.94257	-679.76483	931.44269	138.11624	-551.88763	835.39471	-146.63193	-866.36139	845.07007	-134.48842	-855.58710	430.68079	-83.87415	-475.02332	419.89465	-111.36475	-862.14844	79.24207	-9.03041	-343.04068	172.40170	98.59055	
671	6.700	-627.31445	1335.83643	-315.45630	-667.77734	1515.71741	-69.99111	-763.10626	1438.60803	-190.74823	-539.31213	1388.06543	-204.27562	-892.99042	1242.38489	-75.40493	-474.50696	1234.07715	-94.90789	-696.52869	1156.35657	-188.41301	-674.59021	1315.69849	22.61003	-976.25085	964.38409	-84.42242	-406.76138	989.01788	-29.62699	-981.28247	804.19733	-262.13229	-372.26654	732.93829	-107.10177	-684.27679	932.14685	134.80194	-555.05121	836.95776	-150.17004	-870.37238	846.40332	-138.00040	-857.25934	430.12180	-84.50819	-481.50177	420.54669	-117.61237	-862.53790	79.21783	-9.02744	-353.73099	174.23001	96.75808	
672	6.710	-633.06738	1338.08374	-318.06888	-674.66882	1516.44067	-71.44836	-769.25146	1439.84900	-192.15547	-545.33832	1389.48889	-205.88989	-898.72144	1242.93298	-77.04168	-479.42514	1236.39685	-101.80866	-701.46783	1157.83325	-191.59926	-680.31049	1315.96899	20.57756	-983.97998	965.31055	-82.29716	-411.00879	991.55310	-32.63939	-996.55139	804.62891	-259.17255	-376.26468	735.54816	-113.31869	-687.32111	931.72601	131.37895	-558.66595	838.37640	-153.54243	-874.86444	846.74103	-141.82890	-858.82495	429.30869	-85.18963	-488.76660	421.75415	-124.61001	-862.59674	78.99558	-9.25083	-365.46896	174.36679	93.82983	
673	6.720	-638.55121	1339.90613	-320.11984	-681.07697	1517.09082	-73.15489	-775.69330	1440.84570	-194.30315	-551.04993	1391.14807	-207.72971	-904.42902	1243.07446	-78.39511	-485.24307	1238.24622	-105.21538	-706.29340	1158.71973	-193.83064	-686.07275	1316.09570	18.23637	-991.21576	966.22083	-81.18938	-414.74615	993.34393	-35.84788	-1011.79620	804.25458	-254.49692	-380.58954	738.01971	-119.81409	-690.72522	932.98334	129.58659	-561.38464	839.60272	-156.50365	-878.96967	847.41132	-143.82440	-860.13141	428.64334	-85.90495	-494.43198	422.20013	-132.66724	-862.73651	78.81937	-9.45086	-376.43170	175.38397	91.77996	
